<?xml version="1.0" standalone="no"?>
<!DOCTYPE svg PUBLIC "-//W3C//DTD SVG 20010904//EN"
 "http://www.w3.org/TR/2001/REC-SVG-20010904/DTD/svg10.dtd">
<svg version="1.0" xmlns="http://www.w3.org/2000/svg"
 width="818.000000pt" height="522.000000pt" viewBox="0 0 818.000000 522.000000"
 preserveAspectRatio="xMidYMid meet">

<g transform="translate(0.000000,522.000000) scale(0.100000,-0.100000)"
fill="#000000" stroke="none">
<path d="M4592 4738 c-30 -33 -52 -91 -52 -138 l0 -41 31 18 c42 24 71 83 67
135 -4 49 -17 56 -46 26z"/>
<path d="M4435 4550 c-10 -59 3 -98 46 -140 27 -26 39 -46 39 -66 l0 -29 -24
36 c-26 38 -108 87 -115 68 -2 -6 6 -20 17 -32 11 -12 27 -42 34 -67 12 -37
22 -49 56 -65 34 -17 41 -25 42 -50 0 -41 10 -75 22 -75 8 0 6 32 -7 96 -4 17
2 22 32 30 30 7 38 16 50 49 7 22 27 57 44 78 17 21 28 41 25 45 -4 3 -26 -4
-51 -16 -33 -16 -52 -35 -75 -74 l-30 -53 0 50 c0 45 3 52 30 67 41 24 70 75
70 126 0 23 -3 42 -8 42 -16 0 -54 -34 -73 -64 l-19 -31 -1 30 -1 30 -7 -30
-7 -30 -8 25 c-10 30 -54 90 -66 90 -4 0 -11 -18 -15 -40z"/>
<path d="M3480 4530 c0 -43 34 -104 72 -131 18 -12 49 -36 68 -53 l35 -31 -28
31 c-18 20 -27 41 -27 63 0 48 -28 99 -69 127 -46 31 -51 30 -51 -6z"/>
<path d="M3640 4418 c0 -24 7 -55 14 -70 17 -32 17 -32 -61 -28 -29 1 -57 -1
-63 -5 -17 -11 7 -43 50 -65 43 -22 85 -25 126 -10 23 9 31 7 48 -10 l20 -20
-41 0 c-46 0 -113 -27 -113 -45 0 -12 88 -45 119 -45 9 0 40 12 68 26 50 24
53 24 77 8 16 -10 26 -12 26 -5 0 6 -13 19 -29 29 -22 13 -27 22 -20 32 5 8 9
38 9 66 0 39 -6 61 -26 90 -47 69 -68 65 -68 -13 1 -40 11 -74 42 -136 2 -5
-14 3 -37 18 -39 27 -41 30 -41 81 0 45 -5 59 -31 89 -18 20 -40 40 -50 46
-17 9 -19 6 -19 -33z"/>
<path d="M6095 4438 c-26 -15 -44 -39 -45 -58 0 -11 -19 -19 -62 -27 -72 -14
-104 -39 -94 -76 10 -40 65 -55 136 -36 10 3 16 -5 18 -26 4 -34 18 -55 38
-55 20 0 18 89 -2 141 -14 35 -15 42 -3 50 24 15 56 -34 73 -112 20 -86 37
-120 72 -148 24 -19 64 -29 64 -16 0 3 -8 17 -17 32 -13 19 -18 52 -19 128 -2
67 -9 116 -20 144 -24 61 -88 88 -139 59z"/>
<path d="M4585 4179 c-9 -17 -15 -33 -13 -35 3 -2 12 12 21 31 21 43 13 47 -8
4z"/>
<path d="M4476 4178 c13 -23 37 -48 46 -48 5 0 0 14 -12 30 -20 29 -49 43 -34
18z"/>
<path d="M5425 3921 c-4 -3 -12 -6 -17 -6 -20 0 -20 -25 -1 -32 22 -8 33 -23
33 -46 0 -17 -3 -16 -30 6 -52 44 -103 49 -65 7 10 -11 37 -25 60 -31 l42 -11
12 -86 c6 -48 14 -99 17 -113 5 -24 2 -27 -38 -37 -23 -7 -50 -16 -57 -21 -25
-16 32 -24 89 -12 51 11 130 46 130 58 0 3 -22 3 -50 0 -59 -7 -68 4 -77 86
-5 52 -5 52 32 72 39 20 73 61 61 72 -11 11 -71 -26 -89 -55 l-16 -27 -1 30
c0 17 -5 47 -11 68 -9 32 -8 42 6 57 15 16 14 18 -4 23 -11 2 -23 2 -26 -2z"/>
<path d="M2087 3709 c-23 -31 -54 -116 -45 -125 2 -2 23 6 46 18 40 19 86 78
62 78 -6 0 -17 14 -24 31 l-13 31 -26 -33z"/>
<path d="M690 3708 c0 -24 -13 -50 -24 -49 -32 5 -42 -23 -16 -47 19 -18 18
-68 -2 -56 -13 8 -38 -15 -38 -36 0 -10 7 -21 16 -24 13 -5 14 -16 9 -61 -7
-54 -7 -56 32 -94 42 -42 105 -66 148 -55 14 3 40 23 56 44 21 26 36 36 49 33
19 -5 37 28 25 47 -10 16 18 50 37 44 20 -6 39 24 32 53 -3 11 1 25 10 32 25
21 19 35 -22 53 -20 9 -95 44 -165 77 -71 34 -133 61 -138 61 -5 0 -9 -10 -9
-22z"/>
<path d="M1932 3597 c-19 -53 -15 -100 14 -142 17 -25 24 -48 22 -69 l-3 -31
-16 35 c-9 19 -34 51 -55 70 l-39 34 -3 -39 c-2 -22 -1 -54 3 -72 6 -32 57
-96 84 -104 11 -4 12 -18 6 -64 l-7 -60 -19 41 c-24 51 -63 88 -111 109 l-38
15 0 -25 c0 -79 82 -175 150 -175 19 0 20 -6 20 -120 0 -66 4 -120 9 -120 16
0 19 23 13 131 l-5 106 46 6 c63 9 83 23 123 85 41 63 42 72 8 72 -41 0 -91
-29 -136 -79 l-41 -46 7 34 c3 18 6 46 6 61 0 25 4 28 46 33 56 6 91 30 121
83 29 50 29 54 -3 54 -38 0 -90 -28 -124 -66 -30 -35 -35 -31 -24 23 4 23 14
33 42 43 61 21 92 57 107 128 l7 33 -39 -16 c-21 -8 -49 -28 -62 -43 l-24 -27
6 30 c7 29 7 30 -6 6 -14 -23 -14 -23 -20 15 -6 38 -31 84 -46 84 -4 0 -12
-15 -19 -33z"/>
<path d="M4756 3518 c-8 -29 -18 -74 -22 -100 -6 -44 -56 -203 -67 -214 -2 -3
-14 20 -26 49 -12 30 -34 66 -49 79 -28 26 -118 65 -128 55 -3 -3 0 -25 6 -48
12 -45 56 -94 149 -169 42 -34 45 -39 49 -97 l4 -60 -35 -7 c-33 -6 -97 -63
-97 -86 0 -15 100 -40 159 -39 31 0 71 5 90 12 73 25 63 77 -14 77 -53 0 -67
15 -73 80 -5 50 -5 50 26 50 16 0 52 7 80 16 46 15 53 15 83 0 38 -19 45 -16
29 14 -30 56 -127 77 -187 40 -32 -19 -33 -19 -33 -1 0 34 28 85 65 121 51 49
65 80 65 145 0 56 -29 135 -50 135 -5 0 -16 -24 -24 -52z"/>
<path d="M6810 3428 c0 -7 3 -23 6 -36 6 -22 7 -22 167 -20 l161 3 7 33 6 32
-173 0 c-133 0 -174 -3 -174 -12z"/>
<path d="M1131 3287 c-16 -41 -13 -86 8 -133 26 -58 39 -62 57 -18 20 48 11
102 -26 145 l-28 34 -11 -28z"/>
<path d="M2775 3179 c-39 -51 -40 -53 -45 -158 -3 -58 -8 -111 -12 -116 -3 -6
-1 -21 6 -33 12 -23 12 -23 54 22 23 25 44 56 48 70 3 13 2 79 -3 146 l-8 121
-40 -52z"/>
<path d="M1231 3119 c-6 -18 -11 -48 -11 -68 0 -27 -3 -32 -10 -21 -7 10 -10
11 -10 2 0 -9 -9 -7 -27 7 -16 11 -43 22 -60 26 -40 8 -42 -4 -10 -59 25 -44
77 -76 123 -76 23 0 34 -6 42 -24 l11 -24 -48 16 c-31 10 -61 12 -86 8 l-38
-7 22 -22 c17 -18 41 -24 119 -33 87 -10 99 -9 116 6 17 17 17 24 5 110 -12
91 -12 92 -27 64 -9 -16 -18 -58 -21 -94 l-6 -65 -23 37 c-22 35 -22 39 -8 67
21 40 20 98 -2 140 -23 46 -37 49 -51 10z"/>
<path d="M2456 2993 c14 -63 50 -118 104 -160 123 -96 141 -116 147 -158 l5
-40 -74 -22 c-40 -12 -86 -25 -102 -28 l-29 -6 27 -28 c15 -16 44 -34 65 -41
34 -11 42 -10 62 4 27 18 75 21 85 5 4 -8 9 -7 15 2 7 12 9 12 9 0 0 -9 11
-12 39 -9 l40 3 38 -82 c21 -46 41 -83 45 -83 11 0 10 44 0 56 -5 5 -19 35
-32 67 l-23 59 29 24 29 23 -39 1 c-24 0 -47 -7 -59 -17 -11 -10 -17 -13 -14
-7 4 7 0 17 -7 23 -11 10 -16 8 -21 -9 -10 -31 -27 -13 -20 21 5 21 2 31 -9
35 -9 3 -16 13 -16 21 0 8 -16 49 -37 91 -20 43 -42 95 -48 117 -8 27 -25 49
-52 70 -34 25 -125 80 -156 93 -4 2 -5 -9 -1 -25z"/>
<path d="M3081 2869 c-16 -13 -39 -19 -76 -19 l-52 0 -19 -47 c-11 -27 -20
-51 -22 -55 -6 -14 43 -8 84 11 25 11 55 38 78 70 42 57 44 70 7 40z"/>
<path d="M2797 2860 c-53 -16 -57 -25 -34 -80 18 -42 25 -50 48 -50 24 0 30 7
52 63 23 56 23 63 9 69 -22 9 -41 8 -75 -2z"/>
<path d="M6198 2659 c-37 -9 -97 -20 -133 -24 l-66 -7 7 -31 c4 -18 8 -69 8
-115 1 -46 6 -86 11 -90 6 -4 10 -37 10 -75 l0 -67 -40 -25 -40 -24 80 -3 c44
-2 -93 -5 -305 -6 -331 -2 -389 -4 -408 -18 -30 -20 -28 -48 5 -72 l26 -19
-73 -289 c-110 -437 -134 -533 -250 -998 -59 -235 -111 -431 -116 -435 -5 -3
-10 -22 -12 -41 -2 -28 -48 -232 -68 -302 -3 -10 0 -18 6 -18 6 0 13 14 17 30
l6 30 167 0 167 0 -5 -33 c-3 -21 -1 -29 5 -22 9 9 60 197 100 365 57 244 363
1459 424 1683 l10 37 230 0 c205 0 230 -2 225 -16 -3 -8 -2 -13 3 -10 4 3 29
-79 55 -182 25 -103 75 -299 110 -437 245 -951 308 -1217 295 -1226 -9 -5 -10
-9 -2 -9 11 0 29 -49 53 -145 15 -60 34 -86 28 -37 l-5 32 167 0 168 0 6 -31
c3 -17 10 -28 15 -25 4 3 0 38 -10 78 -66 265 -93 358 -100 358 -5 0 -9 -4 -9
-10 0 -6 -62 -10 -165 -10 l-164 0 -10 38 c-5 20 -22 84 -36 142 -14 58 -28
113 -31 123 -5 16 7 17 163 17 l168 0 35 -136 c19 -74 38 -138 42 -140 5 -3 8
-3 8 1 0 3 -90 364 -200 801 -110 438 -200 803 -200 810 0 8 6 14 13 14 18 0
47 32 47 53 0 39 -36 47 -220 49 -96 0 -155 4 -130 7 42 6 45 8 48 39 2 18 -1
32 -7 32 -6 0 -11 17 -11 38 0 20 -3 66 -6 102 l-6 65 -69 -3 -70 -4 7 -36 c3
-20 13 -68 20 -106 10 -49 11 -73 4 -80 -17 -17 -27 8 -33 87 -4 40 -9 87 -13
105 -6 31 -8 32 -58 34 l-51 2 48 3 47 4 1 47 1 47 12 -45 12 -45 62 -3 62 -3
-1 73 c-1 40 -4 85 -8 99 l-6 26 -67 -18z m-498 -580 c0 -5 -13 -63 -29 -127
-16 -64 -32 -129 -35 -144 l-6 -28 -165 0 c-95 0 -165 4 -165 9 0 16 60 255
70 279 9 21 13 22 170 22 106 0 160 -4 160 -11z m836 3 c6 -4 19 -38 29 -77
10 -38 26 -99 36 -134 11 -35 19 -69 19 -77 0 -11 -31 -14 -165 -14 l-165 0
-6 28 c-4 15 -22 84 -39 155 l-33 127 156 0 c87 0 162 -4 168 -8z m-916 -329
c0 -5 -16 -77 -37 -160 l-37 -153 -168 0 c-129 0 -166 3 -163 13 2 6 16 62 30
122 15 61 31 127 36 148 l10 37 164 0 c91 0 165 -3 165 -7z m1019 -30 c5 -21
22 -85 36 -143 14 -58 28 -113 31 -122 5 -17 -7 -18 -163 -18 l-169 0 -37 153
c-21 83 -37 155 -37 160 0 4 74 7 165 7 l164 0 10 -37z m-1103 -320 c-3 -10
-17 -65 -31 -123 -14 -58 -31 -122 -36 -142 l-10 -38 -164 0 c-119 0 -165 3
-165 12 0 12 53 218 71 276 l11 32 164 0 c153 0 165 -1 160 -17z m1217 -130
c20 -82 37 -154 37 -161 0 -10 -37 -12 -166 -10 l-166 3 -39 150 c-21 83 -39
153 -39 158 0 4 75 7 168 7 l167 0 38 -147z m-1303 -200 c0 -5 -17 -77 -37
-160 l-37 -153 -169 0 c-156 0 -168 1 -163 18 3 9 17 64 31 122 14 58 31 122
36 143 l10 37 164 0 c91 0 165 -3 165 -7z m1354 -8 c3 -8 19 -72 36 -143 17
-70 33 -135 36 -144 5 -17 -7 -18 -163 -18 l-169 0 -40 160 -41 160 167 0
c140 0 169 -2 174 -15z m-1438 -342 c-3 -10 -17 -65 -31 -123 -14 -58 -31
-122 -36 -142 l-10 -38 -168 0 -168 0 41 160 41 160 168 0 c156 0 168 -1 163
-17z m-94 -328 c3 -3 0 -27 -7 -53 -7 -26 -18 -72 -25 -102 -6 -30 -18 -79
-26 -107 l-15 -53 -164 0 c-91 0 -165 1 -165 3 0 1 14 54 31 117 17 63 33 129
36 145 2 17 6 36 8 43 3 9 45 12 163 12 87 0 161 -2 164 -5z m1739 -150 c20
-82 33 -153 29 -158 -3 -4 -78 -6 -166 -5 l-159 3 -12 55 c-7 30 -24 95 -38
145 -14 50 -25 96 -25 103 0 10 37 12 167 10 l168 -3 36 -150z"/>
<path d="M5018 383 c6 -2 18 -2 25 0 6 3 1 5 -13 5 -14 0 -19 -2 -12 -5z"/>
<path d="M4968 373 c7 -3 16 -2 19 1 4 3 -2 6 -13 5 -11 0 -14 -3 -6 -6z"/>
<path d="M2680 2380 c-14 -26 3 -33 22 -10 14 15 14 19 2 24 -7 3 -18 -3 -24
-14z"/>
<path d="M3184 2335 c-23 -23 -25 -32 -21 -73 9 -77 24 -166 32 -185 10 -24
57 -47 95 -47 25 0 35 8 59 45 64 101 67 198 7 252 -31 29 -43 33 -91 33 -47
0 -60 -4 -81 -25z"/>
<path d="M4403 2230 c0 -30 -3 -85 -7 -121 -11 -83 2 -123 54 -174 44 -43 52
-62 19 -44 -47 25 -80 27 -175 13 -93 -14 -99 -14 -135 6 -22 11 -39 16 -39
11 0 -5 18 -32 40 -60 47 -59 103 -81 211 -81 59 0 68 -3 82 -24 22 -34 32
-76 18 -76 -7 0 -32 -9 -57 -21 -25 -11 -68 -23 -95 -26 -27 -3 -49 -9 -49
-13 0 -4 17 -21 38 -36 36 -28 41 -29 157 -30 125 0 184 13 214 49 12 15 10
17 -15 17 -16 0 -57 13 -92 30 -62 29 -63 31 -57 62 9 44 33 76 86 116 24 18
60 46 80 62 40 32 89 119 89 158 l0 23 -27 -19 c-16 -10 -59 -36 -97 -56 -58
-32 -71 -45 -88 -84 l-20 -45 -19 54 c-13 36 -19 80 -19 137 0 94 -12 128 -65
189 l-33 38 1 -55z"/>
<path d="M1734 1879 c-33 -9 -109 -80 -109 -101 0 -20 73 -22 119 -4 66 26 85
46 79 84 -4 27 -9 32 -32 31 -14 0 -40 -5 -57 -10z"/>
<path d="M1817 1749 c-5 -18 -10 -20 -50 -14 -56 9 -121 -18 -161 -65 l-28
-34 24 -9 c34 -13 97 0 141 29 41 27 44 26 22 -16 -11 -21 -23 -30 -40 -30
-62 0 -126 -48 -151 -112 -5 -15 0 -18 27 -18 19 0 49 9 67 20 29 18 32 18 23
3 -22 -39 -29 -44 -62 -49 -51 -8 -91 -36 -116 -80 -33 -57 -30 -68 13 -61 50
8 98 48 124 103 13 25 29 48 36 51 8 3 15 13 15 22 1 9 5 -11 10 -43 11 -77
21 -85 49 -45 43 59 50 98 31 150 -13 34 -15 52 -8 70 l10 24 4 -25 c8 -50 24
-88 47 -109 l24 -23 12 22 c9 17 7 39 -11 108 -12 48 -26 92 -31 99 -6 7 -7
21 -3 33 3 11 2 20 -3 20 -5 0 -12 -9 -15 -21z"/>
<path d="M3096 1282 c-11 -36 -17 -82 -31 -237 -8 -88 -19 -202 -25 -253 -6
-52 -8 -97 -5 -102 3 -5 1 -10 -5 -12 -11 -3 -43 -439 -34 -463 4 -8 16 -15
29 -15 18 0 25 9 35 48 7 26 21 74 31 106 11 33 19 66 19 75 0 9 10 52 21 96
12 44 22 91 23 105 3 30 23 109 34 130 4 8 16 42 26 75 52 169 66 192 103 169
16 -10 58 -74 49 -74 -2 0 3 -21 11 -47 8 -27 17 -66 19 -87 2 -22 8 -42 13
-46 6 -3 12 -26 15 -50 6 -63 36 -232 43 -244 3 -5 7 -19 9 -30 9 -61 33 -175
43 -199 9 -23 16 -28 39 -25 32 4 32 -46 2 448 -6 107 -11 224 -10 260 0 36
-4 99 -11 140 -6 41 -13 93 -14 115 -2 22 -6 60 -10 85 l-7 45 -203 2 c-185 2
-204 1 -209 -15z"/>
<path d="M557 1141 l-118 -96 78 -5 78 -5 155 -246 c85 -135 197 -310 249
-389 52 -79 94 -150 94 -157 0 -7 3 -13 6 -13 4 0 5 -31 3 -69 l-4 -69 73 -6
c41 -3 184 -8 319 -12 l245 -6 -3 70 -4 69 39 7 c68 12 137 38 189 71 54 35
139 113 140 130 0 6 15 42 34 80 29 61 33 80 34 150 0 91 -14 131 -65 189 -61
70 -160 116 -250 116 -32 0 -94 -15 -141 -35 -15 -6 -18 -2 -18 28 0 45 3 45
-277 50 l-212 5 -5 -27 c-3 -14 -15 -118 -26 -231 -12 -113 -22 -209 -24 -214
-1 -6 -105 114 -231 265 -125 151 -235 282 -243 291 -12 14 -13 29 -4 85 5 37
9 69 8 69 0 1 -54 -42 -119 -95z m1420 -267 c108 -52 166 -161 144 -273 -22
-112 -105 -230 -183 -262 -18 -7 -39 -19 -46 -26 -14 -13 -32 -17 -66 -13 -12
1 -16 -2 -11 -11 6 -9 2 -11 -13 -7 -12 3 -22 2 -24 -2 -2 -5 -15 -6 -29 -3
-26 5 -26 5 -33 126 -3 67 -9 197 -13 288 l-6 167 32 17 c78 40 163 39 248 -1z
m-477 -254 c12 -12 25 -18 30 -15 19 12 10 -12 -13 -33 -17 -16 -29 -20 -50
-14 -14 4 -27 12 -28 17 -3 19 -11 35 -18 35 -5 0 -16 -16 -27 -35 -10 -19
-19 -35 -20 -35 0 0 -15 5 -33 11 -38 13 -39 25 -4 61 23 24 34 28 85 28 45 0
63 -5 78 -20z m65 -90 c20 -39 19 -50 -11 -104 -17 -31 -34 -48 -52 -52 -15
-4 -32 -11 -39 -16 -8 -6 -13 0 -18 21 -5 23 -1 38 14 57 12 15 21 22 21 15 0
-6 11 -11 25 -11 l25 0 -20 41 -21 40 23 19 c31 26 35 25 53 -10z m-211 -27
c9 -19 12 -32 7 -28 -9 5 -31 -23 -31 -39 0 -3 20 -6 45 -6 45 0 45 0 45 -35
0 -32 -2 -35 -31 -35 -17 0 -39 4 -49 10 -30 16 -62 80 -59 119 2 20 0 41 -3
47 -4 6 6 8 26 6 26 -3 37 -11 50 -39z"/>
<path d="M2523 483 c9 -2 25 -2 35 0 9 3 1 5 -18 5 -19 0 -27 -2 -17 -5z"/>
<path d="M2328 463 c7 -3 16 -2 19 1 4 3 -2 6 -13 5 -11 0 -14 -3 -6 -6z"/>
<path d="M2278 453 c7 -3 16 -2 19 1 4 3 -2 6 -13 5 -11 0 -14 -3 -6 -6z"/>
<path d="M2218 443 c7 -3 16 -2 19 1 4 3 -2 6 -13 5 -11 0 -14 -3 -6 -6z"/>
<path d="M5418 403 c6 -2 18 -2 25 0 6 3 1 5 -13 5 -14 0 -19 -2 -12 -5z"/>
<path d="M5478 393 c7 -3 16 -2 19 1 4 3 -2 6 -13 5 -11 0 -14 -3 -6 -6z"/>
<path d="M5588 373 c7 -3 16 -2 19 1 4 3 -2 6 -13 5 -11 0 -14 -3 -6 -6z"/>
<path d="M2972 255 c0 -16 2 -22 5 -12 2 9 2 23 0 30 -3 6 -5 -1 -5 -18z"/>
<path d="M6563 223 c9 -2 23 -2 30 0 6 3 -1 5 -18 5 -16 0 -22 -2 -12 -5z"/>
<path d="M6098 213 c12 -2 30 -2 40 0 9 3 -1 5 -23 4 -22 0 -30 -2 -17 -4z"/>
<path d="M935 180 c-3 -6 1 -7 9 -4 18 7 21 14 7 14 -6 0 -13 -4 -16 -10z"/>
<path d="M2853 104 c-95 -47 -68 -64 100 -64 116 0 130 7 110 53 -8 17 -19 21
-59 23 -27 1 -60 4 -74 7 -17 4 -43 -2 -77 -19z"/>
<path d="M3620 119 c-14 -6 -42 -8 -62 -5 -34 6 -37 4 -43 -24 -4 -16 -4 -34
0 -40 4 -6 51 -10 113 -10 167 0 186 13 96 62 -53 30 -66 32 -104 17z"/>
</g>
</svg>
